<?xml version="1.0" standalone="no"?>
<!DOCTYPE svg PUBLIC "-//W3C//DTD SVG 20010904//EN"
 "http://www.w3.org/TR/2001/REC-SVG-20010904/DTD/svg10.dtd">
<svg version="1.0" xmlns="http://www.w3.org/2000/svg"
 width="417.000000pt" height="417.000000pt" viewBox="0 0 417.000000 417.000000"
 preserveAspectRatio="xMidYMid meet">
<metadata>
Created by potrace 1.11, written by Peter Selinger 2001-2013
</metadata>
<g transform="translate(0.000000,417.000000) scale(0.100000,-0.100000)"
fill="#000000" stroke="none">
<path d="M1860 4159 c-707 -79 -1321 -504 -1637 -1134 -141 -280 -208 -543
-220 -860 -18 -492 126 -951 419 -1338 78 -103 249 -280 348 -360 484 -391
1116 -545 1730 -421 815 164 1461 810 1624 1624 90 447 34 901 -158 1305 -210
440 -536 770 -971 985 -336 166 -761 241 -1135 199z m-875 -1315 c143 -70 268
-134 277 -143 11 -10 75 -213 163 -516 80 -275 155 -530 166 -567 l20 -68 563
0 563 0 32 108 c17 59 31 113 31 120 0 9 -119 12 -560 12 -397 0 -566 3 -584
11 -14 7 -33 28 -42 47 -13 29 -14 41 -5 73 22 73 -13 69 657 69 l601 0 28 98
c15 53 30 103 32 109 4 10 -145 13 -692 15 l-697 3 -29 33 c-46 51 -33 133 26
160 19 9 221 12 799 12 760 0 774 0 799 -20 25 -20 53 -82 43 -98 -9 -14 -256
-862 -256 -878 0 -9 -15 -31 -34 -50 l-34 -34 -671 0 c-733 0 -716 -1 -739 57
-6 15 -79 262 -162 548 -83 286 -158 541 -166 566 l-15 46 -226 109 c-147 71
-234 119 -249 137 -54 64 -8 165 76 167 14 0 142 -57 285 -126z m850 -1598
c21 -11 53 -40 69 -64 26 -37 31 -53 31 -105 0 -77 -26 -131 -83 -171 -84 -59
-217 -42 -274 35 -96 129 -38 292 117 330 41 10 93 1 140 -25z m906 3 c142
-71 142 -284 -1 -356 -156 -80 -336 59 -291 224 35 135 168 194 292 132z"/>
</g>
</svg>
